<?xml version="1.0" encoding="UTF-8" standalone="no"?>
<!DOCTYPE svg PUBLIC "-//W3C//DTD SVG 1.1//EN" "http://www.w3.org/Graphics/SVG/1.1/DTD/svg11.dtd">
<svg width="100%" height="100%" viewBox="0 0 48 48" version="1.1" xmlns="http://www.w3.org/2000/svg" xmlns:xlink="http://www.w3.org/1999/xlink" xml:space="preserve" xmlns:serif="http://www.serif.com/" style="fill-rule:evenodd;clip-rule:evenodd;stroke-linejoin:round;stroke-miterlimit:2;">
    <g id="Play">
        <g transform="matrix(1.65689e-16,2.70591,-2.70591,1.65689e-16,111.718,-29.9562)">
            <path d="M19.94,24L28.357,40.834L11.523,40.834L19.94,24Z"/>
            <path d="M20.271,23.835L28.688,40.669C28.745,40.784 28.739,40.92 28.672,41.029C28.604,41.138 28.485,41.204 28.357,41.204L11.523,41.204C11.395,41.204 11.276,41.138 11.209,41.029C11.141,40.92 11.135,40.784 11.192,40.669L19.61,23.835C19.672,23.71 19.8,23.63 19.94,23.63C20.08,23.63 20.208,23.71 20.271,23.835ZM19.94,24L11.523,40.834L28.357,40.834L19.94,24Z" style="fill:white;"/>
        </g>
        <g transform="matrix(0.512079,0,0,0.418571,4.04048,13.2178)">
            <g transform="matrix(0.0189746,0,0,0.0209983,-0.666165,6.24365)">
                <path d="M1650.95,339.753C1619.41,384.155 1588.35,437.714 1545.91,464.815C1502.44,492.573 1447.05,492.573 1299.96,492.573C1152.86,492.573 1097.47,492.573 1054,464.815C1011.57,437.714 980.505,384.155 948.958,339.753C948.193,338.676 947.427,337.604 946.661,336.538C914.318,291.536 881.167,257.047 812.195,250.666C743.222,244.285 638.429,266.011 554.886,307.308C522.62,323.258 493.523,342.127 466.944,363.597C470.953,328.963 509.45,281.911 616.387,245.552C624.666,242.737 633.356,239.986 642.391,237.324C732.472,210.783 856.888,193.081 951.37,208.812C969.809,211.883 987.108,216.226 1002.79,222.026L1597.12,222.026C1612.8,216.226 1630.1,211.883 1648.54,208.812C1743.02,193.081 1867.44,210.783 1957.52,237.324C1966.56,239.986 1975.25,242.737 1983.53,245.552C2090.46,281.911 2128.96,328.963 2132.97,363.597C2106.39,342.127 2077.29,323.258 2045.03,307.308C1961.48,266.011 1856.69,244.285 1787.72,250.666C1718.75,257.047 1685.59,291.536 1653.25,336.538C1652.49,337.604 1651.72,338.676 1650.95,339.753Z"/>
            </g>
            <g transform="matrix(0.0189746,0,0,0.0209983,-0.666165,6.24365)">
                <path d="M642.391,237.324C847.618,116.461 853.075,117.008 862.464,118.971C871.852,120.934 885.171,124.314 893.622,127.061C902.072,129.809 905.654,131.924 951.37,208.812C856.888,193.081 732.472,210.783 642.391,237.324Z" style="fill:rgb(55,255,158);"/>
            </g>
            <g transform="matrix(0.0189746,0,0,0.0209983,-0.666165,6.24365)">
                <path d="M1957.52,237.324C1867.44,210.783 1743.02,193.081 1648.54,208.812C1694.26,131.924 1697.84,129.809 1706.29,127.061C1714.74,124.314 1728.06,120.934 1737.45,118.971C1746.84,117.008 1752.29,116.461 1957.52,237.324Z" style="fill:rgb(55,255,158);"/>
            </g>
            <g transform="matrix(0.0189746,0,0,0.0209983,-0.666165,6.24365)">
                <path d="M466.944,363.597C493.523,342.127 522.62,323.258 554.886,307.308C638.429,266.011 743.222,244.285 812.195,250.666C881.167,257.047 914.318,291.536 946.661,336.538C947.427,337.604 948.193,338.676 948.958,339.753C980.505,384.155 1011.57,437.714 1054,464.815C1097.47,492.573 1152.86,492.573 1299.96,492.573C1447.05,492.573 1502.44,492.573 1545.91,464.815C1588.35,437.714 1619.41,384.155 1650.95,339.753C1651.72,338.676 1652.49,337.604 1653.25,336.538C1685.59,291.536 1718.75,257.047 1787.72,250.666C1856.69,244.285 1961.48,266.011 2045.03,307.308C2077.29,323.258 2106.39,342.127 2132.97,363.597C2175.21,397.717 2211.09,438.405 2243.22,484.385C2295.59,559.298 2338.02,648.259 2383.21,820.494C2428.4,992.729 2476.33,1248.24 2481,1405.52C2485.66,1562.8 2447.05,1621.84 2406.77,1663.52C2366.49,1705.2 2324.55,1729.52 2285.24,1737.67C2245.93,1745.82 2209.26,1737.81 2133.8,1670.12C2058.33,1602.43 1944.09,1475.06 1876.75,1407.25C1809.41,1339.44 1788.99,1331.19 1714.6,1325.9C1640.2,1320.62 1511.84,1318.31 1299.96,1318.31C1088.07,1318.31 959.709,1320.62 885.316,1325.9C810.923,1331.19 790.5,1339.44 723.164,1407.25C655.828,1475.06 541.578,1602.43 466.117,1670.12C390.655,1737.81 353.982,1745.82 314.673,1737.67C275.364,1729.52 233.42,1705.2 193.143,1663.52C152.865,1621.84 114.253,1562.8 118.916,1405.52C123.579,1248.24 171.516,992.729 216.703,820.494C261.889,648.259 304.324,559.298 356.688,484.385C388.827,438.405 424.707,397.717 466.944,363.597Z" style="fill:rgb(55,255,158);"/>
            </g>
        </g>
    </g>
</svg>
